<svg width="55" height="55" viewBox="0 0 55 55" fill="none" xmlns="http://www.w3.org/2000/svg">
<path d="M27.5 0C12.3116 0 0 12.3116 0 27.5C0 42.6884 12.3116 55 27.5 55C42.6884 55 55 42.6884 55 27.5C55 12.3116 42.6884 0 27.5 0ZM27.5 10.7609C29.4812 10.7609 31.087 12.3666 31.087 14.3478C31.087 16.329 29.4812 17.9348 27.5 17.9348C25.5188 17.9348 23.913 16.329 23.913 14.3478C23.913 12.3666 25.5188 10.7609 27.5 10.7609ZM32.2826 43.0435H29.8913H25.1087H22.7174V40.6522H25.1087V25.1087H22.7174V22.7174H25.1087H29.8913V25.1087V40.6522H32.2826V43.0435Z" fill="#FD8402"/>
</svg>
