<svg width="55" height="55" viewBox="0 0 55 55" fill="none" xmlns="http://www.w3.org/2000/svg">
<circle cx="27.5" cy="27.5" r="27.5" fill="#FD8402"/>
<path fill-rule="evenodd" clip-rule="evenodd" d="M41.8772 25.1896C41.3394 19.6733 38.0783 11 27.9998 11C17.9214 11 14.6602 19.6733 14.1225 25.1896C12.2361 25.9055 10.9917 27.7167 11 29.7344V32.163C11 34.8454 13.1747 37.02 15.8572 37.02C18.5396 37.02 20.7142 34.8454 20.7142 32.163V29.7344C20.7055 27.7603 19.5069 25.9863 17.6786 25.2416C18.0255 22.0498 19.7255 14.4693 27.9998 14.4693C36.2742 14.4693 37.9568 22.0498 38.3038 25.2416C36.4791 25.9879 35.2866 27.7631 35.2854 29.7344V32.163C35.293 34.0277 36.3637 35.7247 38.0436 36.5343C37.315 37.9047 35.4589 39.7608 30.8967 40.3159C29.9848 38.9311 28.2204 38.3852 26.6857 39.013C25.1511 39.6408 24.2751 41.2667 24.5952 42.8937C24.9152 44.5206 26.3417 45.6934 27.9998 45.6934C29.3101 45.6861 30.5045 44.9413 31.0876 43.7679C38.5293 42.9179 40.9058 39.0843 41.6517 36.8292C43.6697 36.1755 45.0268 34.284 44.9996 32.163V29.7344C45.0079 27.7167 43.7636 25.9055 41.8772 25.1896ZM17.2449 32.163C17.2449 32.9294 16.6236 33.5507 15.8572 33.5507C15.0907 33.5507 14.4694 32.9294 14.4694 32.163V29.7344C14.4694 29.2386 14.7339 28.7805 15.1633 28.5326C15.5927 28.2847 16.1217 28.2847 16.551 28.5326C16.9804 28.7805 17.2449 29.2386 17.2449 29.7344V32.163ZM38.7548 29.7344C38.7548 28.968 39.3761 28.3467 40.1425 28.3467C40.9089 28.3467 41.5303 28.968 41.5303 29.7344V32.163C41.5303 32.9294 40.9089 33.5507 40.1425 33.5507C39.3761 33.5507 38.7548 32.9294 38.7548 32.163V29.7344Z" fill="#924D0B"/>
</svg>
