<svg width="314" height="79" viewBox="0 0 314 79" fill="none" xmlns="http://www.w3.org/2000/svg">
<path d="M41.9655 0.942581L45.4664 33.5289H33.8417L33.1236 10.2786L28.6353 33.5289H16.876L12.2979 10.4582L11.6247 33.5289H0L3.50087 0.942581H18.761L22.6659 22.1731L26.077 0.942581H41.9655Z" fill="#FD8402"/>
<path d="M68.1431 33.9778C61.291 33.9778 56.2491 32.4966 53.0176 29.5342C49.786 26.5419 48.1702 22.3526 48.1702 16.9664C48.1702 11.6401 49.771 7.48079 52.9727 4.48848C56.2042 1.49616 61.2611 0 68.1431 0C75.0551 0 80.1119 1.49616 83.3135 4.48848C86.5451 7.48079 88.1609 11.6401 88.1609 16.9664C88.1609 22.3825 86.56 26.5718 83.3584 29.5342C80.1568 32.4966 75.085 33.9778 68.1431 33.9778ZM68.1431 24.8213C71.4644 24.8213 73.8582 24.1929 75.3244 22.9361C76.7905 21.6494 77.5236 19.6595 77.5236 16.9664C77.5236 14.3332 76.7905 12.3732 75.3244 11.0865C73.8582 9.79984 71.4644 9.15649 68.1431 9.15649C64.8517 9.15649 62.4729 9.79984 61.0067 11.0865C59.5405 12.3732 58.8075 14.3332 58.8075 16.9664C58.8075 19.6296 59.5405 21.6045 61.0067 22.8912C62.4729 24.1779 64.8517 24.8213 68.1431 24.8213Z" fill="#FD8402"/>
<path d="M129.395 0.987466C129.185 6.04448 129.081 11.4606 129.081 17.2358C129.081 23.0408 129.185 28.4719 129.395 33.5289H113.327L102.465 9.02184L103.273 33.5289H91.7382C91.9775 27.7238 92.0972 22.2928 92.0972 17.2358C92.0972 12.2087 91.9775 6.79256 91.7382 0.987466H108.255L119.162 26.1678L118.399 0.987466H129.395Z" fill="#FD8402"/>
<path d="M171.537 10.3684C166.84 10.2188 162.277 10.129 157.848 10.0991V33.5289H146.627V10.0991C142.169 10.129 137.621 10.2188 132.983 10.3684V0.942581H171.537V10.3684Z" fill="#FD8402"/>
<path d="M199.875 33.5289C199.307 31.8233 198.544 29.6838 197.586 27.1104H183.269L181.025 33.5289H169.759L182.326 0.942581H198.843L211.5 33.5289H199.875ZM195.028 20.1084C193.891 16.9664 192.724 13.8245 191.527 10.6826L190.45 7.76507C189.403 10.4881 187.862 14.6025 185.827 20.1084H195.028Z" fill="#FD8402"/>
<path d="M250.675 0.987466C250.466 6.04448 250.361 11.4606 250.361 17.2358C250.361 23.0408 250.466 28.4719 250.675 33.5289H234.607L223.745 9.02184L224.553 33.5289H213.018C213.258 27.7238 213.377 22.2928 213.377 17.2358C213.377 12.2087 213.258 6.79256 213.018 0.987466H229.535L240.442 26.1678L239.679 0.987466H250.675Z" fill="#FD8402"/>
<path d="M282.584 33.5289C282.016 31.8233 281.253 29.6838 280.295 27.1104H265.978L263.734 33.5289H252.468L265.035 0.942581H281.552L294.209 33.5289H282.584ZM277.737 20.1084C276.6 16.9664 275.433 13.8245 274.236 10.6826L273.159 7.76507C272.112 10.4881 270.571 14.6025 268.536 20.1084H277.737Z" fill="#FD8402"/>
<path d="M10.5924 70.3372C21.9627 70.2774 30.2062 70.1128 35.3228 69.8435C35.1134 71.0704 34.9787 72.3421 34.9189 73.6587C34.889 74.9454 34.874 76.5762 34.874 78.5512H0C0.239375 72.7461 0.359063 67.315 0.359063 62.258C0.359063 57.201 0.239375 51.7699 0 45.9648H34.874V54.089H10.5924V58.3979C12.0286 58.4278 14.1531 58.4428 16.9657 58.4428C21.7233 58.4428 26.6455 58.353 31.7322 58.1735V65.8936C26.6455 65.7141 21.7233 65.6243 16.9657 65.6243C14.1531 65.6243 12.0286 65.6393 10.5924 65.6692V70.3372Z" fill="white"/>
<path d="M60.2605 61.854L73.3663 78.5512H60.3952L53.932 69.7537L47.424 78.5512H34.4529L47.5587 61.854L34.9017 45.9648H47.8729L53.932 54.0441L59.9464 45.9648H72.9175L60.2605 61.854Z" fill="white"/>
<path d="M90.9299 79C84.1676 79 79.1856 77.5637 75.9839 74.6911C72.7823 71.8184 71.1815 67.719 71.1815 62.3926C71.1815 57.0364 72.7823 52.8023 75.9839 49.6902C79.1856 46.5782 84.1676 45.0222 90.9299 45.0222C100.385 45.0222 106.714 48.2689 109.915 54.7622C107.222 55.6898 104.066 57.0813 100.445 58.9365C99.5774 57.2608 98.201 56.019 96.3159 55.2111C94.4607 54.4031 92.5607 53.9992 90.6158 53.9992C87.7432 53.9992 85.6038 54.7622 84.1975 56.2883C82.7912 57.7845 82.088 59.6397 82.088 61.854C82.088 64.2479 82.8361 66.2078 84.3321 67.7339C85.8582 69.2301 88.1771 69.9782 91.289 69.9782C93.7725 69.9782 95.7474 69.5742 97.2135 68.7663C98.6797 67.9284 99.7569 66.6118 100.445 64.8164C102.899 66.133 106.041 67.6142 109.871 69.26C108.374 72.8807 105.876 75.4092 102.375 76.8455C98.8742 78.2818 95.0592 79 90.9299 79Z" fill="white"/>
<path d="M151.134 45.9648C150.925 51.0218 150.82 56.4529 150.82 62.258C150.82 68.0631 150.925 73.4941 151.134 78.5512H140.587V66.3425H124.07V78.5512H113.522C113.762 72.7461 113.881 67.315 113.881 62.258C113.881 57.201 113.762 51.7699 113.522 45.9648H124.07V58.1735H140.587V45.9648H151.134Z" fill="white"/>
<path d="M183.044 78.5512C182.476 76.8455 181.713 74.706 180.755 72.1326H166.438L164.194 78.5512H152.928L165.495 45.9648H182.012L194.669 78.5512H183.044ZM178.197 65.1306C177.06 61.9887 175.893 58.8467 174.696 55.7048L173.619 52.7873C172.572 55.5103 171.031 59.6247 168.996 65.1306H178.197Z" fill="white"/>
<path d="M233.844 46.0097C233.635 51.0667 233.53 56.4828 233.53 62.258C233.53 68.0631 233.635 73.4941 233.844 78.5512H217.776L206.914 54.0441L207.722 78.5512H196.187C196.427 72.7461 196.546 67.315 196.546 62.258C196.546 57.2309 196.427 51.8148 196.187 46.0097H212.704L223.611 71.1901L222.848 46.0097H233.844Z" fill="white"/>
<path d="M255.924 59.9689H275.089V78.5512H267.19L266.247 70.6066C265.349 73.4493 263.749 75.5588 261.445 76.9353C259.141 78.3118 256.328 79 253.007 79C249.984 79 247.292 78.3267 244.928 76.9802C242.594 75.6337 240.754 73.7036 239.407 71.1901C238.091 68.6765 237.432 65.744 237.432 62.3926C237.432 57.0364 239.033 52.8023 242.235 49.6902C245.436 46.5782 250.418 45.0222 257.181 45.0222C261.041 45.0222 264.437 45.6506 267.369 46.9074C270.331 48.1642 272.845 50.1092 274.909 52.7424C273.563 53.4306 270.93 54.8071 267.01 56.8718L265.888 57.5002C264.721 56.3332 263.36 55.4654 261.804 54.8969C260.248 54.2984 258.602 53.9992 256.867 53.9992C253.994 53.9992 251.855 54.7622 250.448 56.2883C249.042 57.7845 248.339 59.6397 248.339 61.854C248.339 64.2479 249.087 66.1779 250.583 67.6442C252.109 69.1104 254.428 69.8435 257.54 69.8435C258.886 69.8435 260.188 69.649 261.445 69.26C262.731 68.871 263.808 68.1977 264.676 67.2402H255.924V59.9689Z" fill="white"/>
<path d="M289.27 70.3372C300.64 70.2774 308.883 70.1128 314 69.8435C313.791 71.0704 313.656 72.3421 313.596 73.6587C313.566 74.9454 313.551 76.5762 313.551 78.5512H278.677C278.917 72.7461 279.036 67.315 279.036 62.258C279.036 57.201 278.917 51.7699 278.677 45.9648H313.551V54.089H289.27V58.3979C290.706 58.4278 292.83 58.4428 295.643 58.4428C300.4 58.4428 305.323 58.353 310.409 58.1735V65.8936C305.323 65.7141 300.4 65.6243 295.643 65.6243C292.83 65.6243 290.706 65.6393 289.27 65.6692V70.3372Z" fill="white"/>
</svg>
