<svg width="56" height="56" viewBox="0 0 56 56" fill="none" xmlns="http://www.w3.org/2000/svg">
<path d="M27.5115 55.0229C42.7056 55.0229 55.0229 42.7056 55.0229 27.5115C55.0229 12.3173 42.7056 0 27.5115 0C12.3173 0 0 12.3173 0 27.5115C0 42.7056 12.3173 55.0229 27.5115 55.0229Z" fill="url(#paint0_linear_150_326)"/>
<path fill-rule="evenodd" clip-rule="evenodd" d="M12.4385 27.2137C20.456 23.7318 25.7933 21.4182 28.4735 20.2957C36.1015 17.1116 37.705 16.5618 38.7359 16.5389C38.9649 16.5389 39.4689 16.5848 39.8125 16.8596C40.0874 17.0887 40.1561 17.3865 40.2019 17.6156C40.2477 17.8446 40.2935 18.3257 40.2477 18.6922C39.8354 23.0446 38.0486 33.6047 37.1324 38.4611C36.7429 40.5227 35.987 41.2099 35.254 41.2786C33.6505 41.4161 32.4364 40.2249 30.9016 39.217C28.4735 37.6364 27.1219 36.6514 24.7625 35.0937C22.0366 33.307 23.8004 32.3219 25.3581 30.7185C25.7704 30.3061 32.8029 23.8921 32.9403 23.3194C32.9633 23.2507 32.9633 22.9758 32.8029 22.8384C32.6426 22.701 32.4135 22.7468 32.2302 22.7926C31.9782 22.8384 28.1299 25.404 20.6392 30.4665C19.5397 31.2224 18.5547 31.5889 17.6613 31.566C16.6763 31.5431 14.7979 31.0162 13.3777 30.5581C11.6596 30.0083 10.2852 29.7105 10.3997 28.7484C10.4685 28.2445 11.1557 27.7405 12.4385 27.2137Z" fill="#924C0B"/>
<defs>
<linearGradient id="paint0_linear_150_326" x1="27.4885" y1="0" x2="27.4885" y2="54.5877" gradientUnits="userSpaceOnUse">
<stop stop-color="#FD8402"/>
<stop offset="1" stop-color="#FD8402"/>
</linearGradient>
</defs>
</svg>
